HIERARCHY
ROOT Hips
{
	OFFSET 0.000000 87.230942 0.000000
	CHANNELS 6 Xposition Yposition Zposition Xrotation Yrotation Zrotation
	JOINT Pelvis
	{
		OFFSET 0.000000 0.000000 0.000000
		CHANNELS 3 Xrotation Yrotation Zrotation
		JOINT LeftUpLeg
		{
			OFFSET 12.017000 -9.376404 -2.439400
			CHANNELS 3 Xrotation Yrotation Zrotation
			JOINT LeftLeg
			{
				OFFSET -0.007312 -32.846973 2.110600
				CHANNELS 3 Xrotation Yrotation Zrotation
				JOINT LeftFoot
				{
					OFFSET 0.007312 -32.065170 -0.570400
					CHANNELS 3 Xrotation Yrotation Zrotation
					JOINT LeftToeBase
					{
						OFFSET 0.728300 -11.045900 13.180700
						CHANNELS 3 Xrotation Yrotation Zrotation
						End Site
						{
							OFFSET 0.000000 17.212589 0.000000
						}
					}
				}
				JOINT LeftPantLeg
				{
					OFFSET 0.002788 -16.709013 -3.143600
					CHANNELS 3 Xrotation Yrotation Zrotation
					End Site
					{
						OFFSET -0.605125 24.528742 0.000000
					}
				}
			}
			JOINT Left_Butt
			{
				OFFSET -6.630234 1.326584 -3.183700
				CHANNELS 3 Xrotation Yrotation Zrotation
				End Site
				{
					OFFSET -0.498041 20.188049 0.000000
				}
			}
		}
		JOINT RightUpLeg
		{
			OFFSET -11.717000 -9.376404 -2.439400
			CHANNELS 3 Xrotation Yrotation Zrotation
			JOINT RightLeg
			{
				OFFSET -0.003241 -32.846912 2.110600
				CHANNELS 3 Xrotation Yrotation Zrotation
				JOINT RightFoot
				{
					OFFSET 0.003241 -32.065136 -0.570500
					CHANNELS 3 Xrotation Yrotation Zrotation
					JOINT RightToeBase
					{
						OFFSET -0.728300 -11.045901 13.180700
						CHANNELS 3 Xrotation Yrotation Zrotation
						End Site
						{
							OFFSET 0.000000 17.212593 0.000000
						}
					}
				}
				JOINT RightPantLeg
				{
					OFFSET 0.008142 -16.708982 -3.143700
					CHANNELS 3 Xrotation Yrotation Zrotation
					End Site
					{
						OFFSET 0.605088 24.528715 0.000000
					}
				}
			}
			JOINT Right_Butt
			{
				OFFSET 6.630732 1.326584 -3.183700
				CHANNELS 3 Xrotation Yrotation Zrotation
				End Site
				{
					OFFSET 0.498015 20.188240 0.000000
				}
			}
		}
	}
	JOINT Spine
	{
		OFFSET -0.062400 7.848404 3.918300
		CHANNELS 3 Xrotation Yrotation Zrotation
		JOINT Spine1
		{
			OFFSET -0.072800 11.422302 0.713400
			CHANNELS 3 Xrotation Yrotation Zrotation
			JOINT Spine2
			{
				OFFSET -0.083200 13.054001 -1.931600
				CHANNELS 3 Xrotation Yrotation Zrotation
				JOINT Neck
				{
					OFFSET -0.092200 14.121796 -5.138800
					CHANNELS 3 Xrotation Yrotation Zrotation
					JOINT Head
					{
						OFFSET 0.000200 10.447403 -0.842000
						CHANNELS 3 Xrotation Yrotation Zrotation
						JOINT Visor
						{
							OFFSET 0.457100 25.671204 16.550400
							CHANNELS 3 Xrotation Yrotation Zrotation
							End Site
							{
								OFFSET 0.000000 26.061493 0.000000
							}
						}
						JOINT HairMidA
						{
							OFFSET 0.459400 31.585403 8.437400
							CHANNELS 3 Xrotation Yrotation Zrotation
							End Site
							{
								OFFSET 0.000000 26.061493 0.000000
							}
						}
						JOINT HairMidB
						{
							OFFSET 0.464000 33.309204 -8.389700
							CHANNELS 3 Xrotation Yrotation Zrotation
							End Site
							{
								OFFSET 0.000000 26.061493 0.000000
							}
						}
						JOINT HairMidC
						{
							OFFSET 0.466600 27.991196 -17.375099
							CHANNELS 3 Xrotation Yrotation Zrotation
							End Site
							{
								OFFSET 0.000000 26.061493 0.000000
							}
						}
						JOINT HairMidD
						{
							OFFSET 0.467700 17.888092 -21.169500
							CHANNELS 3 Xrotation Yrotation Zrotation
							End Site
							{
								OFFSET 0.000000 26.061493 0.000000
							}
						}
						JOINT HairMidE
						{
							OFFSET 5.325700 3.514603 -14.369699
							CHANNELS 3 Xrotation Yrotation Zrotation
							End Site
							{
								OFFSET 0.000000 26.061493 0.000000
							}
						}
						JOINT HairMidF
						{
							OFFSET -4.394100 3.514603 -14.372400
							CHANNELS 3 Xrotation Yrotation Zrotation
							End Site
							{
								OFFSET 0.000000 26.061493 0.000000
							}
						}
						JOINT HairLeftA
						{
							OFFSET 15.319900 25.746506 2.623300
							CHANNELS 3 Xrotation Yrotation Zrotation
							End Site
							{
								OFFSET 0.000000 26.061493 0.000000
							}
						}
						JOINT HairLeftB
						{
							OFFSET 12.619500 29.289398 -8.731499
							CHANNELS 3 Xrotation Yrotation Zrotation
							End Site
							{
								OFFSET 0.000000 26.061493 0.000000
							}
						}
						JOINT HairLeftC
						{
							OFFSET 15.714800 15.959900 2.909800
							CHANNELS 3 Xrotation Yrotation Zrotation
							End Site
							{
								OFFSET 0.000000 26.061493 0.000000
							}
						}
						JOINT HairLeftD
						{
							OFFSET 16.101700 18.437408 -7.553200
							CHANNELS 3 Xrotation Yrotation Zrotation
							End Site
							{
								OFFSET 0.000000 26.061493 0.000000
							}
						}
						JOINT HairLeftE
						{
							OFFSET 9.731900 17.915009 -18.316799
							CHANNELS 3 Xrotation Yrotation Zrotation
							End Site
							{
								OFFSET 0.000000 26.061493 0.000000
							}
						}
						JOINT HairLeftF
						{
							OFFSET 11.204300 4.953598 -9.668100
							CHANNELS 3 Xrotation Yrotation Zrotation
							End Site
							{
								OFFSET 0.000000 26.061493 0.000000
							}
						}
						JOINT HairRightA
						{
							OFFSET -14.397900 25.746307 2.615100
							CHANNELS 3 Xrotation Yrotation Zrotation
							End Site
							{
								OFFSET 0.000000 26.061493 0.000000
							}
						}
						JOINT HairRightB
						{
							OFFSET -11.691200 29.289200 -8.738199
							CHANNELS 3 Xrotation Yrotation Zrotation
							End Site
							{
								OFFSET 0.000000 26.061493 0.000000
							}
						}
						JOINT HairRightC
						{
							OFFSET -14.792900 15.959702 2.901400
							CHANNELS 3 Xrotation Yrotation Zrotation
							End Site
							{
								OFFSET 0.000000 26.061493 0.000000
							}
						}
						JOINT HairRightD
						{
							OFFSET -15.174000 18.437195 -7.561900
							CHANNELS 3 Xrotation Yrotation Zrotation
							End Site
							{
								OFFSET 0.000000 26.061493 0.000000
							}
						}
						JOINT HairRightE
						{
							OFFSET -8.798200 17.914902 -18.322001
							CHANNELS 3 Xrotation Yrotation Zrotation
							End Site
							{
								OFFSET 0.000000 26.061493 0.000000
							}
						}
						JOINT HairRightF
						{
							OFFSET -10.275200 4.953506 -9.674099
							CHANNELS 3 Xrotation Yrotation Zrotation
							End Site
							{
								OFFSET 0.000000 26.061493 0.000000
							}
						}
					}
				}
				JOINT LeftShoulder
				{
					OFFSET 5.133500 7.341202 -1.867600
					CHANNELS 3 Xrotation Yrotation Zrotation
					JOINT LeftArm
					{
						OFFSET 8.072663 0.936867 -2.176600
						CHANNELS 3 Xrotation Yrotation Zrotation
						JOINT LeftForeArm
						{
							OFFSET 31.271999 0.000000 0.000000
							CHANNELS 3 Xrotation Yrotation Zrotation
							JOINT LeftHand
							{
								OFFSET 31.771030 0.000000 0.000000
								CHANNELS 3 Xrotation Yrotation Zrotation
								JOINT LeftHandThumb1
								{
									OFFSET 2.886520 -2.557846 4.416640
									CHANNELS 3 Xrotation Yrotation Zrotation
									JOINT LeftHandThumb2
									{
										OFFSET 2.371025 -1.368912 1.368911
										CHANNELS 3 Xrotation Yrotation Zrotation
										JOINT LeftHandThumb3
										{
											OFFSET 2.243378 -1.295212 1.295213
											CHANNELS 3 Xrotation Yrotation Zrotation
											End Site
											{
												OFFSET -0.332611 2.876945 0.020015
											}
										}
									}
								}
								JOINT LeftHandIndex1
								{
									OFFSET 8.568985 -0.641945 3.119977
									CHANNELS 3 Xrotation Yrotation Zrotation
									JOINT LeftHandIndex2
									{
										OFFSET 3.348503 0.000000 0.000000
										CHANNELS 3 Xrotation Yrotation Zrotation
										JOINT LeftHandIndex3
										{
											OFFSET 3.314552 0.000000 0.000000
											CHANNELS 3 Xrotation Yrotation Zrotation
											End Site
											{
												OFFSET -1.032898 3.075485 0.678796
											}
										}
									}
								}
								JOINT LeftHandMiddle1
								{
									OFFSET 8.124603 0.000000 0.000000
									CHANNELS 3 Xrotation Yrotation Zrotation
									JOINT LeftHandMiddle2
									{
										OFFSET 4.166275 0.000000 0.000000
										CHANNELS 3 Xrotation Yrotation Zrotation
										JOINT LeftHandMiddle3
										{
											OFFSET 3.018135 0.000000 0.000000
											CHANNELS 3 Xrotation Yrotation Zrotation
											End Site
											{
												OFFSET -1.032700 2.767982 0.617226
											}
										}
									}
								}
								JOINT LeftHandRing1
								{
									OFFSET 8.571686 -0.031357 -2.884048
									CHANNELS 3 Xrotation Yrotation Zrotation
									JOINT LeftHandRing2
									{
										OFFSET 3.671181 0.000000 0.000000
										CHANNELS 3 Xrotation Yrotation Zrotation
										JOINT LeftHandRing3
										{
											OFFSET 2.728851 0.000000 0.000000
											CHANNELS 3 Xrotation Yrotation Zrotation
											End Site
											{
												OFFSET -0.815796 2.539223 0.577389
											}
										}
									}
								}
								JOINT LeftHandPinky1
								{
									OFFSET 7.854515 -0.675232 -5.213020
									CHANNELS 3 Xrotation Yrotation Zrotation
									JOINT LeftHandPinky2
									{
										OFFSET 3.068596 0.000000 0.000000
										CHANNELS 3 Xrotation Yrotation Zrotation
										JOINT LeftHandPinky3
										{
											OFFSET 2.396042 0.000000 0.000000
											CHANNELS 3 Xrotation Yrotation Zrotation
											End Site
											{
												OFFSET -0.524597 2.267998 0.567429
											}
										}
									}
								}
							}
							JOINT LeftSleeve
							{
								OFFSET 19.684509 -0.200119 0.476146
								CHANNELS 3 Xrotation Yrotation Zrotation
								End Site
								{
									OFFSET -0.031017 25.731133 -0.002868
								}
							}
						}
					}
				}
				JOINT RightShoulder
				{
					OFFSET -4.395900 7.341202 -1.870200
					CHANNELS 3 Xrotation Yrotation Zrotation
					JOINT RightArm
					{
						OFFSET -8.071453 0.936867 -2.181100
						CHANNELS 3 Xrotation Yrotation Zrotation
						JOINT RightForeArm
						{
							OFFSET -31.272011 0.000000 0.000000
							CHANNELS 3 Xrotation Yrotation Zrotation
							JOINT RightHand
							{
								OFFSET -31.771019 0.000000 0.000000
								CHANNELS 3 Xrotation Yrotation Zrotation
								JOINT RightHandThumb1
								{
									OFFSET -2.886520 -2.557808 4.416626
									CHANNELS 3 Xrotation Yrotation Zrotation
									JOINT RightHandThumb2
									{
										OFFSET -2.371056 -1.368927 1.368928
										CHANNELS 3 Xrotation Yrotation Zrotation
										JOINT RightHandThumb3
										{
											OFFSET -2.243362 -1.295204 1.295206
											CHANNELS 3 Xrotation Yrotation Zrotation
											End Site
											{
												OFFSET 0.332642 2.876938 0.020047
											}
										}
									}
								}
								JOINT RightHandIndex1
								{
									OFFSET -8.568993 -0.641953 3.120017
									CHANNELS 3 Xrotation Yrotation Zrotation
									JOINT RightHandIndex2
									{
										OFFSET -3.348518 0.000000 0.000000
										CHANNELS 3 Xrotation Yrotation Zrotation
										JOINT RightHandIndex3
										{
											OFFSET -3.314552 0.000000 0.000000
											CHANNELS 3 Xrotation Yrotation Zrotation
											End Site
											{
												OFFSET 1.032898 3.075478 0.678804
											}
										}
									}
								}
								JOINT RightHandMiddle1
								{
									OFFSET -8.124588 0.000000 0.000000
									CHANNELS 3 Xrotation Yrotation Zrotation
									JOINT RightHandMiddle2
									{
										OFFSET -4.166275 0.000000 0.000000
										CHANNELS 3 Xrotation Yrotation Zrotation
										JOINT RightHandMiddle3
										{
											OFFSET -3.018097 0.000000 0.000000
											CHANNELS 3 Xrotation Yrotation Zrotation
											End Site
											{
												OFFSET 1.032700 2.767937 0.617197
											}
										}
									}
								}
								JOINT RightHandRing1
								{
									OFFSET -8.571747 -0.031349 -2.884061
									CHANNELS 3 Xrotation Yrotation Zrotation
									JOINT RightHandRing2
									{
										OFFSET -3.671204 0.000000 0.000000
										CHANNELS 3 Xrotation Yrotation Zrotation
										JOINT RightHandRing3
										{
											OFFSET -2.728874 0.000000 0.000000
											CHANNELS 3 Xrotation Yrotation Zrotation
											End Site
											{
												OFFSET 0.815804 2.539261 0.577413
											}
										}
									}
								}
								JOINT RightHandPinky1
								{
									OFFSET -7.854561 -0.675247 -5.212970
									CHANNELS 3 Xrotation Yrotation Zrotation
									JOINT RightHandPinky2
									{
										OFFSET -3.068550 0.000000 0.000000
										CHANNELS 3 Xrotation Yrotation Zrotation
										JOINT RightHandPinky3
										{
											OFFSET -2.395981 0.000000 0.000000
											CHANNELS 3 Xrotation Yrotation Zrotation
											End Site
											{
												OFFSET 0.524605 2.267952 0.567413
											}
										}
									}
								}
							}
							JOINT RightSleeve
							{
								OFFSET -19.684753 -0.200165 0.476065
								CHANNELS 3 Xrotation Yrotation Zrotation
								End Site
								{
									OFFSET 0.031342 25.731255 -0.002917
								}
							}
						}
					}
				}
				JOINT Hood
				{
					OFFSET 0.369700 14.447800 -5.317800
					CHANNELS 3 Xrotation Yrotation Zrotation
					JOINT Hood1
					{
						OFFSET 0.001700 -5.553802 -5.895100
						CHANNELS 3 Xrotation Yrotation Zrotation
						JOINT Hood2
						{
							OFFSET -0.000200 -8.380501 0.763600
							CHANNELS 3 Xrotation Yrotation Zrotation
							End Site
							{
								OFFSET 0.000000 8.415215 0.000000
							}
						}
					}
				}
				JOINT Left_Breast
				{
					OFFSET 5.682500 3.120102 3.188800
					CHANNELS 3 Xrotation Yrotation Zrotation
					End Site
					{
						OFFSET 0.000000 10.528564 0.000000
					}
				}
				JOINT Right_Breast
				{
					OFFSET -4.947600 3.120102 3.185900
					CHANNELS 3 Xrotation Yrotation Zrotation
					End Site
					{
						OFFSET 0.000000 10.528564 0.000000
					}
				}
				JOINT Whistle
				{
					OFFSET 0.368200 11.471298 0.095400
					CHANNELS 3 Xrotation Yrotation Zrotation
					JOINT Whistle1
					{
						OFFSET -0.002000 -6.349899 7.479800
						CHANNELS 3 Xrotation Yrotation Zrotation
						JOINT Whistle2
						{
							OFFSET -0.001300 -8.217598 4.717600
							CHANNELS 3 Xrotation Yrotation Zrotation
							End Site
							{
								OFFSET 0.000000 9.475479 0.000000
							}
						}
					}
				}
			}
		}
		JOINT Belly
		{
			OFFSET 0.212400 1.593002 3.163700
			CHANNELS 3 Xrotation Yrotation Zrotation
			End Site
			{
				OFFSET 0.000000 7.496635 0.000000
			}
		}
	}
	JOINT FitGrandmaFacialAnim_Joint
	{
		OFFSET 1.150000 -86.211197 -1.220100
		CHANNELS 3 Xrotation Yrotation Zrotation
		End Site
		{
			OFFSET 0.000000 31.666618 0.000000
		}
	}
}
MOTION
Frames: 4
Frame Time: 0.016667
-3.872423 57.585777 7.601000 38.727015 -53.630799 30.958673 -0.000000 -0.000001 -0.000001 -77.004393 -8.009174 30.296417 98.233761 -14.916986 1.088061 -40.305984 1.635619 -12.556388 -0.000000 -0.000002 -0.000000 -0.000000 0.000004 -0.000004 -0.000002 -0.000000 0.000000 -77.903833 -4.508059 -34.144396 100.438683 9.412439 0.997728 -42.200976 -2.704171 9.492763 0.000000 -0.000000 0.000000 -0.000002 0.000000 0.000000 -0.000001 -0.000001 0.000001 8.241690 -2.074491 -2.668495 3.591997 -3.361500 -2.519242 3.576403 -3.306026 -2.583289 -4.843179 17.213152 -6.645906 -39.838707 36.524379 9.074944 -0.000000 -0.000000 -0.000000 -0.000000 -0.000000 -0.000000 -0.000000 -0.000000 -0.000000 -0.000000 -0.000000 -0.000000 -0.000000 -0.000000 -0.000000 -0.000000 -0.000000 -0.000000 -0.000000 -0.000000 -0.000000 -0.000000 -0.000000 -0.000000 -0.000000 -0.000000 -0.000000 -0.000000 -0.000000 -0.000000 -0.000000 -0.000000 -0.000000 -0.000000 -0.000000 -0.000000 -0.000000 -0.000000 -0.000000 -0.000000 -0.000000 -0.000000 -0.000000 -0.000000 -0.000000 -0.000000 -0.000000 -0.000000 -0.000000 -0.000000 -0.000000 -0.000000 -0.000000 -0.000000 -0.000000 -0.000000 -0.000000 5.547246 -8.009807 -6.640980 -64.034267 1.869210 -22.502845 21.515685 -29.366808 16.956537 -2.616375 -8.068140 2.194879 40.109931 -15.297206 -0.360493 5.639824 28.097921 11.338831 -0.000000 0.000002 -0.000001 6.880117 2.821175 -61.138601 8.247983 7.640029 -89.897878 0.000002 0.000001 0.000001 -2.344781 4.689009 -62.667874 8.755242 9.896937 -87.054682 0.000000 -0.000002 -0.000000 -9.042447 10.045668 -60.766178 8.524181 9.509042 -66.902536 -0.000002 -0.000002 -0.000003 -17.946923 14.754969 -51.485867 8.862275 8.673524 -84.822391 -0.000003 -0.000000 0.000000 -0.000001 0.000002 0.000001 5.583205 9.006416 15.903906 -10.769855 1.892028 48.290851 -18.711337 38.477235 8.552172 6.179189 2.978096 -16.977735 -6.830676 -6.304602 5.093500 1.899668 -22.662911 -8.729831 0.000001 0.000002 -0.000002 -0.976054 0.915613 -2.034103 0.028890 -0.078703 8.598519 -0.000001 0.000001 0.000003 1.418798 -6.781360 2.948466 1.033160 -4.271103 20.381544 -0.000001 -0.000003 -0.000004 -5.862049 -13.951760 7.701487 1.592898 -4.798654 20.257221 0.000001 -0.000002 0.000004 -5.934310 -14.361618 26.354234 2.930751 -2.669604 12.240940 -0.000002 -0.000001 0.000001 0.000000 -0.000000 -0.000000 -0.000004 0.000001 -0.000000 -0.000004 0.000001 -0.000000 -0.000004 0.000001 -0.000000 -0.000004 0.000001 -0.000000 -0.000004 0.000001 -0.000000 -0.000004 0.000001 0.000000 -0.000004 -0.000003 -0.000000 -0.000004 -0.000003 -0.000000 -0.000000 0.000001 -0.000002 -0.000000 -0.000001 -0.000001 
-3.713919 56.271057 7.262156 39.329944 -53.469784 31.309761 -0.000001 0.000002 -0.000001 -79.069063 -9.519507 30.934173 100.537133 -15.601252 1.046282 -40.514616 1.576651 -12.759802 -0.000000 0.000000 -0.000000 0.000003 -0.000001 0.000001 -0.000002 0.000000 0.000001 -80.224574 -3.890767 -34.708306 103.127162 10.209029 0.976482 -42.708743 -2.561532 8.848924 0.000000 -0.000000 0.000000 -0.000001 -0.000001 0.000000 0.000002 0.000001 -0.000001 7.956222 -1.997779 -2.569049 3.758345 -3.279233 -2.496428 3.743189 -3.226189 -2.558064 -4.149925 17.553323 -7.160888 -39.823049 36.047184 8.584220 0.000000 -0.000000 0.000000 0.000000 -0.000000 0.000000 0.000000 -0.000000 0.000000 0.000000 -0.000000 0.000000 0.000000 -0.000000 0.000000 0.000000 -0.000000 0.000000 0.000000 -0.000000 0.000000 0.000000 -0.000000 0.000000 0.000000 -0.000000 0.000000 0.000000 -0.000000 0.000000 0.000000 -0.000000 0.000000 0.000000 -0.000000 0.000000 0.000000 -0.000000 0.000000 0.000000 -0.000000 0.000000 0.000000 -0.000000 0.000000 0.000000 -0.000000 0.000000 0.000000 -0.000000 0.000000 0.000000 -0.000000 0.000000 0.000000 -0.000000 0.000000 5.745044 -8.108533 -6.895806 -64.657030 0.940650 -22.490097 22.078532 -28.805701 16.993217 -2.188449 -8.346537 1.944082 40.109931 -15.297206 -0.360493 5.639823 28.097920 11.338833 0.000000 0.000004 -0.000000 6.879322 2.813743 -61.137891 8.247982 7.640026 -89.897878 0.000000 0.000001 -0.000003 -2.346751 4.689014 -62.672812 8.755132 9.896994 -87.054470 0.000000 -0.000000 -0.000001 -9.042449 10.045673 -60.766185 8.524229 9.509130 -66.906211 -0.000000 0.000001 0.000002 -17.946923 14.754973 -51.485867 8.862065 8.673811 -84.826681 -0.000006 -0.000001 0.000001 0.000001 0.000000 0.000002 5.819258 9.101597 16.094149 -10.347751 2.384193 47.454437 -19.056445 39.289628 8.937002 5.144261 3.543859 -17.909697 -7.273782 -5.961018 4.974717 1.807444 -22.244876 -8.652311 0.000000 0.000002 0.000002 -0.859998 0.831747 -2.769316 0.027988 -0.078734 7.696502 -0.000003 -0.000005 0.000007 1.401317 -6.841167 1.747775 0.975756 -4.290808 19.317648 -0.000004 -0.000002 -0.000002 -5.234674 -14.009307 5.961756 1.421476 -4.592407 19.068146 -0.000000 -0.000001 -0.000004 -6.123059 -14.120963 22.999690 2.904573 -2.693771 11.162819 -0.000003 0.000001 0.000000 -0.000002 -0.000001 0.000001 0.000000 -0.000001 0.000001 0.000000 -0.000001 0.000001 0.000000 -0.000001 0.000001 0.000000 -0.000001 0.000001 0.000000 -0.000001 0.000001 0.000000 -0.000001 0.000001 0.000000 -0.000001 0.000001 0.000000 -0.000001 0.000001 0.000003 0.000001 0.000000 -0.000001 0.000002 -0.000001 
-3.560812 54.992508 6.935326 39.877967 -53.373687 31.675118 -0.000001 -0.000000 0.000000 -80.985635 -10.965589 31.567505 102.711633 -16.276411 1.005588 -40.664908 1.504625 -12.976817 -0.000000 0.000000 0.000000 0.000001 0.000003 0.000001 -0.000001 0.000002 0.000002 -82.544537 -3.126246 -35.261726 105.729430 11.069882 0.934773 -42.777902 -2.452039 8.282286 0.000000 -0.000000 0.000000 0.000002 0.000001 0.000000 -0.000001 0.000002 -0.000001 7.661662 -1.910873 -2.484041 3.920446 -3.180474 -2.492624 3.905904 -3.129783 -2.551264 -3.463313 17.929206 -7.697896 -39.698122 35.578602 8.116826 0.000000 0.000000 0.000000 0.000000 0.000000 0.000000 0.000000 0.000000 0.000000 0.000000 0.000000 0.000000 0.000000 0.000000 0.000000 0.000000 0.000000 0.000000 0.000000 0.000000 0.000000 0.000000 0.000000 0.000000 0.000000 0.000000 0.000000 0.000000 0.000000 0.000000 0.000000 0.000000 0.000000 0.000000 0.000000 0.000000 0.000000 0.000000 0.000000 0.000000 0.000000 0.000000 0.000000 0.000000 0.000000 0.000000 0.000000 0.000000 0.000000 0.000000 0.000000 0.000000 0.000000 0.000000 0.000000 0.000000 0.000000 5.951875 -8.061976 -6.968065 -65.208567 0.226338 -22.718877 22.758018 -28.220342 17.107343 -1.837100 -8.526889 1.949946 40.109931 -15.297206 -0.360492 5.639822 28.097925 11.338830 0.000002 0.000002 -0.000002 6.878500 2.806575 -61.137180 8.247980 7.640029 -89.897878 0.000001 0.000000 0.000001 -2.348144 4.689087 -62.677661 8.755060 9.896936 -87.054326 -0.000004 -0.000004 -0.000004 -9.042447 10.045674 -60.766178 8.524265 9.509215 -66.909892 0.000002 -0.000000 -0.000005 -17.946925 14.754973 -51.485867 8.861890 8.674085 -84.830792 -0.000001 0.000000 0.000001 0.000001 0.000000 0.000001 6.023420 9.139921 16.277669 -9.808049 2.869001 46.606376 -19.217641 39.891409 9.114135 4.158438 3.984980 -18.528413 -7.704050 -5.623322 4.866716 1.718607 -21.838335 -8.576015 -0.000000 -0.000000 0.000001 -0.751785 0.746874 -3.402902 0.027167 -0.078813 6.886467 -0.000003 -0.000003 0.000004 1.379482 -6.897002 0.604307 0.922511 -4.308980 18.305600 -0.000002 0.000001 -0.000001 -4.598599 -14.115966 4.200484 1.257793 -4.370505 17.870683 0.000003 -0.000000 -0.000001 -6.286742 -13.898230 19.326223 2.878207 -2.716626 9.974130 -0.000004 0.000001 0.000001 -0.000002 -0.000000 0.000001 0.000000 0.000001 -0.000002 0.000000 0.000001 -0.000002 0.000000 0.000001 -0.000002 0.000000 0.000001 -0.000002 0.000000 0.000001 -0.000002 0.000000 0.000001 -0.000001 0.000001 -0.000000 0.000001 0.000001 -0.000000 0.000001 0.000002 0.000001 0.000000 -0.000001 -0.000000 0.000000 
-3.410925 53.734535 6.615748 40.421053 -53.305709 32.047353 -0.000002 -0.000002 0.000001 -82.840482 -12.420702 32.214355 104.786221 -16.964646 0.964847 -40.737690 1.415944 -13.208303 -0.000000 0.000002 0.000000 -0.000000 -0.000001 0.000001 -0.000002 0.000003 0.000003 -84.890557 -2.291706 -35.625198 108.311917 11.642737 0.854525 -42.682371 -2.307712 7.659979 -0.000000 -0.000000 -0.000000 0.000002 -0.000000 0.000001 0.000001 0.000001 -0.000001 7.362900 -1.817527 -2.402052 4.076468 -3.077121 -2.496175 4.062609 -3.028788 -2.551573 -2.778667 18.321578 -8.229657 -39.519317 35.119262 7.656170 -0.000000 0.000000 0.000000 -0.000000 0.000000 0.000000 -0.000000 0.000000 0.000000 -0.000000 0.000000 0.000000 -0.000000 0.000000 0.000000 -0.000000 0.000000 0.000000 -0.000000 0.000000 0.000000 -0.000000 0.000000 0.000000 -0.000000 0.000000 0.000000 -0.000000 0.000000 0.000000 -0.000000 0.000000 0.000000 -0.000000 0.000000 0.000000 -0.000000 0.000000 0.000000 -0.000000 0.000000 0.000000 -0.000000 0.000000 0.000000 -0.000000 0.000000 0.000000 -0.000000 0.000000 0.000000 -0.000000 0.000000 0.000000 -0.000000 0.000000 0.000000 6.122408 -8.035490 -6.996226 -65.715859 -0.382978 -22.932782 23.412089 -27.614434 17.207453 -1.507600 -8.660997 1.990329 40.109931 -15.297204 -0.360492 5.639823 28.097926 11.338828 0.000003 0.000001 -0.000002 6.877754 2.799551 -61.136456 8.247984 7.640029 -89.897871 0.000003 0.000002 0.000001 -2.348847 4.689087 -62.682388 8.754986 9.896956 -87.054053 -0.000003 0.000000 0.000001 -9.042443 10.045671 -60.766178 8.524235 9.509289 -66.913731 0.000003 -0.000001 -0.000002 -17.946921 14.754973 -51.485864 8.861670 8.674392 -84.834931 -0.000003 0.000000 0.000002 -0.000001 0.000000 0.000002 6.224899 9.159322 16.434210 -9.202620 3.322515 45.736740 -19.298974 40.213879 9.212705 3.214244 4.447924 -18.922698 -8.110748 -5.297887 4.771016 1.635674 -21.450125 -8.501652 -0.000002 0.000003 0.000005 -0.653791 0.663562 -3.905957 0.026720 -0.078781 6.195281 -0.000004 0.000001 0.000002 1.354105 -6.946218 -0.446387 0.875431 -4.325219 17.387382 0.000001 -0.000001 -0.000002 -3.971869 -14.268002 2.470771 1.106194 -4.136314 16.709332 0.000005 -0.000001 -0.000003 -6.424698 -13.717943 15.482268 2.853917 -2.736939 8.736593 -0.000001 0.000001 -0.000003 0.000003 -0.000001 -0.000001 -0.000000 0.000002 -0.000000 -0.000000 0.000002 -0.000000 -0.000000 0.000002 -0.000000 -0.000000 0.000002 -0.000000 -0.000000 0.000002 -0.000000 -0.000000 0.000002 0.000000 -0.000002 -0.000002 0.000002 -0.000002 -0.000002 0.000002 0.000003 -0.000001 0.000001 -0.000002 -0.000002 0.000001 
